<svg xmlns="http://www.w3.org/2000/svg" version="1.1" xmlns:xlink="http://www.w3.org/1999/xlink" xmlns:svgjs="http://svgjs.dev/svgjs" viewBox="0 0 9.61705973925236 9.424750213120276"><g transform="matrix(1,0,0,1,0.7933601918918054,6.477427521228471)"><g><path d=" M 1.166126953125 0.030000000000000027 L 1.3596269531249998 0.030000000000000027 Q 1.427126953125 0.030000000000000027 1.491626953125 0.04500000000000015 Q 1.556126953125 0.06000000000000005 1.6063769531249998 0.09300000000000008 Q 1.656626953125 0.126 1.686626953125 0.18000000000000005 Q 1.716626953125 0.2340000000000001 1.716626953125 0.3135 Q 1.716626953125 0.37650000000000006 1.690376953125 0.4387500000000001 Q 1.664126953125 0.5010000000000001 1.610126953125 0.54525 Q 1.556126953125 0.5895000000000001 1.470626953125 0.5985 Q 1.518626953125 0.6135 1.558376953125 0.6525000000000001 Q 1.598126953125 0.6915 1.623626953125 0.7305 Q 1.625126953125 0.7335 1.640876953125 0.7575000000000001 Q 1.656626953125 0.7815000000000001 1.679876953125 0.8167500000000001 Q 1.703126953125 0.8520000000000001 1.728626953125 0.8880000000000001 Q 1.754126953125 0.924 1.775126953125 0.9510000000000001 Q 1.808126953125 0.9915 1.835126953125 1.01625 Q 1.862126953125 1.0410000000000001 1.892126953125 1.0522500000000001 Q 1.922126953125 1.0635000000000001 1.961126953125 1.0650000000000002 L 1.961126953125 1.08 L 1.814126953125 1.08 Q 1.733126953125 1.08 1.667126953125 1.0650000000000002 Q 1.601126953125 1.05 1.550126953125 1.01625 Q 1.499126953125 0.9825 1.4616269531250001 0.924 Q 1.4496269531250001 0.906 1.435376953125 0.8782500000000001 Q 1.421126953125 0.8505 1.406126953125 0.8190000000000001 Q 1.3911269531250001 0.7875000000000001 1.376876953125 0.7582500000000001 Q 1.362626953125 0.7290000000000001 1.352126953125 0.7050000000000001 Q 1.341626953125 0.681 1.3371269531249999 0.6675 Q 1.317626953125 0.6195 1.291376953125 0.5955000000000001 Q 1.265126953125 0.5715 1.235126953125 0.5670000000000001 L 1.235126953125 0.552 Q 1.239626953125 0.552 1.253126953125 0.552 Q 1.2666269531249998 0.552 1.281626953125 0.552 Q 1.322126953125 0.552 1.3603769531249998 0.5355000000000001 Q 1.398626953125 0.519 1.428626953125 0.48150000000000004 Q 1.458626953125 0.44400000000000006 1.470626953125 0.378 Q 1.4736269531250001 0.36450000000000005 1.475876953125 0.34650000000000003 Q 1.4781269531249999 0.3285 1.476626953125 0.30600000000000005 Q 1.472126953125 0.19800000000000006 1.422626953125 0.14775000000000005 Q 1.3731269531249999 0.09750000000000003 1.299626953125 0.09600000000000009 Q 1.2786269531249999 0.09450000000000003 1.253876953125 0.09525000000000006 Q 1.229126953125 0.09600000000000009 1.2088769531249999 0.09600000000000009 Q 1.188626953125 0.09600000000000009 1.181126953125 0.09600000000000009 Q 1.181126953125 0.09450000000000003 1.177376953125 0.0787500000000001 Q 1.1736269531249999 0.06299999999999994 1.169876953125 0.046499999999999986 Q 1.166126953125 0.030000000000000027 1.166126953125 0.030000000000000027 Z M 1.1856269531249999 0.030000000000000027 L 1.1856269531249999 1.08 L 0.960626953125 1.08 L 0.960626953125 0.030000000000000027 L 1.1856269531249999 0.030000000000000027 Z M 0.965126953125 0.9705 L 0.965126953125 1.08 L 0.845126953125 1.08 L 0.845126953125 1.0650000000000002 Q 0.8466269531249999 1.0650000000000002 0.854876953125 1.0650000000000002 Q 0.863126953125 1.0650000000000002 0.8646269531249999 1.0650000000000002 Q 0.903626953125 1.0650000000000002 0.931376953125 1.03725 Q 0.959126953125 1.0095 0.960626953125 0.9705 L 0.965126953125 0.9705 Z M 0.965126953125 0.13950000000000007 L 0.960626953125 0.13950000000000007 Q 0.959126953125 0.10050000000000003 0.931376953125 0.07275000000000009 Q 0.903626953125 0.04500000000000015 0.8646269531249999 0.04500000000000015 Q 0.863126953125 0.04500000000000015 0.854876953125 0.04500000000000015 Q 0.8466269531249999 0.04500000000000015 0.845126953125 0.04500000000000015 L 0.845126953125 0.030000000000000027 L 0.965126953125 0.030000000000000027 L 0.965126953125 0.13950000000000007 Z M 1.181126953125 0.9705 L 1.1856269531249999 0.9705 Q 1.1856269531249999 1.0095 1.214126953125 1.03725 Q 1.242626953125 1.0650000000000002 1.281626953125 1.0650000000000002 Q 1.284626953125 1.0650000000000002 1.292126953125 1.0650000000000002 Q 1.299626953125 1.0650000000000002 1.299626953125 1.0650000000000002 L 1.299626953125 1.08 L 1.181126953125 1.08 L 1.181126953125 0.9705 Z M 2.53100537109375 0.009000000000000119 Q 2.7110053710937496 0.009000000000000119 2.8437553710937498 0.07574999999999998 Q 2.97650537109375 0.14250000000000007 3.04925537109375 0.264 Q 3.12200537109375 0.38550000000000006 3.12200537109375 0.555 Q 3.12200537109375 0.7230000000000001 3.04925537109375 0.8452500000000001 Q 2.97650537109375 0.9675 2.8437553710937498 1.0342500000000001 Q 2.7110053710937496 1.101 2.53100537109375 1.101 Q 2.3510053710937497 1.101 2.21825537109375 1.0342500000000001 Q 2.08550537109375 0.9675 2.01350537109375 0.8460000000000001 Q 1.9415053710937498 0.7245000000000001 1.9415053710937498 0.555 Q 1.9415053710937498 0.387 2.01350537109375 0.26475000000000004 Q 2.08550537109375 0.14250000000000007 2.21825537109375 0.07574999999999998 Q 2.3510053710937497 0.009000000000000119 2.53100537109375 0.009000000000000119 Z M 2.53100537109375 1.038 Q 2.63750537109375 1.038 2.7147553710937498 0.97875 Q 2.79200537109375 0.9195000000000001 2.83325537109375 0.8115000000000001 Q 2.8745053710937496 0.7035 2.8745053710937496 0.555 Q 2.8745053710937496 0.4065000000000001 2.83325537109375 0.2985000000000001 Q 2.79200537109375 0.1905 2.7147553710937498 0.1312500000000001 Q 2.63750537109375 0.07200000000000006 2.53100537109375 0.07200000000000006 Q 2.42600537109375 0.07200000000000006 2.34875537109375 0.1312500000000001 Q 2.27150537109375 0.1905 2.22950537109375 0.2985000000000001 Q 2.1875053710937498 0.4065000000000001 2.1875053710937498 0.555 Q 2.1875053710937498 0.7035 2.22950537109375 0.8115000000000001 Q 2.27150537109375 0.9195000000000001 2.34875537109375 0.97875 Q 2.42600537109375 1.038 2.53100537109375 1.038 Z M 3.4624541015625003 0.031500000000000083 L 3.7699541015625 0.5895000000000001 L 3.5569541015625004 0.6105 L 3.2059541015625004 0.031500000000000083 L 3.4624541015625003 0.031500000000000083 Z M 3.7774541015625003 0.5970000000000001 L 3.7774541015625003 1.08 L 3.5524541015625 1.08 L 3.5524541015625 0.5970000000000001 L 3.7774541015625003 0.5970000000000001 Z M 4.0189541015625005 0.031500000000000083 L 4.1359541015625005 0.031500000000000083 L 3.7609541015625 0.627 L 3.6859541015625004 0.6120000000000001 L 4.0189541015625005 0.031500000000000083 Z M 3.9574541015625 0.138 Q 3.9709541015625005 0.1170000000000001 3.9649541015625003 0.09525000000000006 Q 3.9589541015625 0.07350000000000012 3.9424541015625003 0.059250000000000025 Q 3.9259541015625 0.04500000000000015 3.9049541015625002 0.04500000000000015 Q 3.9049541015625002 0.04500000000000015 3.8959541015625003 0.04500000000000015 Q 3.8869541015625 0.04500000000000015 3.8869541015625 0.04500000000000015 L 3.8869541015625 0.030000000000000027 L 4.2454541015625 0.030000000000000027 L 4.2454541015625 0.04500000000000015 L 4.2244541015625 0.04500000000000015 Q 4.1779541015625 0.04500000000000015 4.136704101562501 0.07200000000000006 Q 4.0954541015625 0.09900000000000009 4.0729541015625 0.13350000000000006 L 3.9574541015625 0.138 Z M 3.5209541015625003 0.138 L 3.2674541015625 0.13350000000000006 Q 3.2464541015625 0.09900000000000009 3.2059541015625004 0.07200000000000006 Q 3.1654541015625 0.04500000000000015 3.1174541015625 0.04500000000000015 L 3.0964541015625002 0.04500000000000015 L 3.0964541015625002 0.030000000000000027 L 3.5929541015625004 0.030000000000000027 L 3.5929541015625004 0.04500000000000015 Q 3.5929541015625004 0.04500000000000015 3.5832041015625 0.04500000000000015 Q 3.5734541015625 0.04500000000000015 3.5734541015625 0.04500000000000015 Q 3.5404541015625 0.04500000000000015 3.5232041015625004 0.07574999999999998 Q 3.5059541015625 0.10650000000000004 3.5209541015625003 0.138 Z M 3.5569541015625004 0.9705 L 3.5569541015625004 1.08 L 3.4369541015625003 1.08 L 3.4369541015625003 1.0650000000000002 Q 3.4369541015625003 1.0650000000000002 3.4459541015625 1.0650000000000002 Q 3.4549541015625 1.0650000000000002 3.4564541015625 1.0650000000000002 Q 3.4954541015625002 1.0650000000000002 3.5232041015625004 1.03725 Q 3.5509541015625 1.0095 3.5524541015625 0.9705 L 3.5569541015625004 0.9705 Z M 3.7729541015625 0.9705 L 3.7774541015625003 0.9705 Q 3.7774541015625003 1.0095 3.8059541015625005 1.03725 Q 3.8344541015625 1.0650000000000002 3.8734541015625004 1.0650000000000002 Q 3.8734541015625004 1.0650000000000002 3.8824541015625003 1.0650000000000002 Q 3.8914541015625 1.0650000000000002 3.8914541015625 1.0650000000000002 L 3.8914541015625 1.08 L 3.7729541015625 1.08 L 3.7729541015625 0.9705 Z M 4.447902099609376 0.030000000000000027 L 4.707402099609376 0.030000000000000027 Q 4.816902099609376 0.030000000000000027 4.903152099609375 0.05625000000000013 Q 4.989402099609376 0.08250000000000002 5.038902099609376 0.13875000000000004 Q 5.088402099609376 0.19500000000000006 5.088402099609376 0.2865000000000001 Q 5.088402099609376 0.35550000000000004 5.062152099609376 0.40275000000000005 Q 5.035902099609376 0.45000000000000007 4.993902099609376 0.47625000000000006 Q 4.951902099609375 0.5025000000000001 4.9054020996093755 0.5085000000000001 Q 4.980402099609376 0.5145000000000001 5.041152099609376 0.5505000000000001 Q 5.101902099609376 0.5865 5.136402099609375 0.6465000000000001 Q 5.170902099609376 0.7065000000000001 5.170902099609376 0.7875000000000001 Q 5.170902099609376 0.8835000000000001 5.1184020996093755 0.9487500000000001 Q 5.065902099609376 1.014 4.970652099609376 1.0470000000000002 Q 4.875402099609376 1.08 4.749402099609376 1.08 L 4.6009020996093755 1.08 Q 4.6009020996093755 1.08 4.6016520996093755 1.06275 Q 4.6024020996093755 1.0455 4.6024020996093755 1.0290000000000001 Q 4.6024020996093755 1.0125000000000002 4.6024020996093755 1.0125000000000002 L 4.683402099609376 1.0125000000000002 Q 4.750902099609376 1.0125000000000002 4.802652099609376 0.9870000000000001 Q 4.854402099609375 0.9615 4.8836520996093755 0.9075000000000001 Q 4.912902099609376 0.8535 4.912902099609376 0.7695000000000001 Q 4.912902099609376 0.7035 4.892652099609376 0.657 Q 4.872402099609376 0.6105 4.838652099609376 0.58125 Q 4.804902099609376 0.552 4.759902099609376 0.5385000000000001 Q 4.714902099609375 0.525 4.665402099609376 0.525 L 4.665402099609376 0.5115000000000001 Q 4.699902099609376 0.5115000000000001 4.732902099609376 0.5002500000000001 Q 4.7659020996093755 0.4890000000000001 4.792152099609376 0.4650000000000001 Q 4.818402099609376 0.44100000000000006 4.833402099609376 0.4012500000000001 Q 4.848402099609376 0.36150000000000004 4.848402099609376 0.30600000000000005 Q 4.848402099609376 0.22950000000000004 4.824402099609376 0.18300000000000005 Q 4.800402099609376 0.13650000000000007 4.757652099609376 0.11550000000000005 Q 4.714902099609375 0.09450000000000003 4.656402099609376 0.09450000000000003 L 4.462902099609376 0.09450000000000003 Q 4.462902099609376 0.09300000000000008 4.459152099609375 0.07725000000000004 Q 4.455402099609376 0.06150000000000011 4.451652099609376 0.04574999999999996 Q 4.447902099609376 0.030000000000000027 4.447902099609376 0.030000000000000027 Z M 4.614402099609376 0.030000000000000027 L 4.614402099609376 1.08 L 4.389402099609375 1.08 L 4.389402099609375 0.030000000000000027 L 4.614402099609376 0.030000000000000027 Z M 4.393902099609376 0.9705 L 4.393902099609376 1.08 L 4.2739020996093755 1.08 L 4.2739020996093755 1.0650000000000002 Q 4.276902099609376 1.0650000000000002 4.284402099609376 1.0650000000000002 Q 4.291902099609376 1.0650000000000002 4.293402099609375 1.0650000000000002 Q 4.332402099609376 1.0650000000000002 4.360152099609376 1.03725 Q 4.387902099609375 1.0095 4.389402099609375 0.9705 L 4.393902099609376 0.9705 Z M 4.393902099609376 0.13950000000000007 L 4.389402099609375 0.13950000000000007 Q 4.387902099609375 0.10050000000000003 4.360152099609376 0.07275000000000009 Q 4.332402099609376 0.04500000000000015 4.293402099609375 0.04500000000000015 Q 4.291902099609376 0.04500000000000015 4.284402099609376 0.04500000000000015 Q 4.276902099609376 0.04500000000000015 4.2739020996093755 0.04500000000000015 L 4.2739020996093755 0.030000000000000027 L 4.393902099609376 0.030000000000000027 L 4.393902099609376 0.13950000000000007 Z M 5.767827392578126 0 L 6.256827392578126 1.0710000000000002 L 5.988327392578126 1.0710000000000002 L 5.676327392578126 0.2895000000000001 L 5.767827392578126 0 Z M 5.445327392578126 0.9705 Q 5.433327392578127 1.0005000000000002 5.440827392578126 1.0215 Q 5.448327392578126 1.0425 5.466327392578126 1.05375 Q 5.484327392578126 1.0650000000000002 5.502327392578127 1.0650000000000002 L 5.515827392578126 1.0650000000000002 L 5.515827392578126 1.08 L 5.1948273925781265 1.08 L 5.1948273925781265 1.0650000000000002 Q 5.1948273925781265 1.0650000000000002 5.201577392578127 1.0650000000000002 Q 5.208327392578126 1.0650000000000002 5.208327392578126 1.0650000000000002 Q 5.242827392578127 1.0650000000000002 5.279577392578126 1.04325 Q 5.316327392578127 1.0215 5.340327392578127 0.9705 L 5.445327392578126 0.9705 Z M 5.767827392578126 0 L 5.773827392578126 0.18300000000000005 L 5.401827392578126 1.0755000000000001 L 5.292327392578127 1.0755000000000001 L 5.680827392578126 0.1965 Q 5.6853273925781265 0.1875 5.696577392578126 0.16275000000000006 Q 5.707827392578126 0.138 5.720577392578126 0.10650000000000004 Q 5.7333273925781265 0.07499999999999996 5.743827392578126 0.04574999999999996 Q 5.754327392578126 0.01649999999999996 5.754327392578126 0 L 5.767827392578126 0 Z M 5.925327392578127 0.7230000000000001 L 5.925327392578127 0.786 L 5.484327392578126 0.786 L 5.484327392578126 0.7230000000000001 L 5.925327392578127 0.7230000000000001 Z M 5.947827392578127 0.9705 L 6.210327392578126 0.9705 Q 6.235827392578126 1.0215 6.2718273925781265 1.04325 Q 6.307827392578126 1.0650000000000002 6.3423273925781265 1.0650000000000002 Q 6.3423273925781265 1.0650000000000002 6.348327392578126 1.0650000000000002 Q 6.354327392578126 1.0650000000000002 6.354327392578126 1.0650000000000002 L 6.354327392578126 1.08 L 5.877327392578127 1.08 L 5.877327392578127 1.0650000000000002 L 5.890827392578126 1.0650000000000002 Q 5.9208273925781265 1.0650000000000002 5.9433273925781265 1.0402500000000001 Q 5.965827392578126 1.0155 5.947827392578127 0.9705 Z M 6.730797363281252 0.030000000000000027 L 6.730797363281252 1.08 L 6.505797363281252 1.08 L 6.505797363281252 0.030000000000000027 L 6.730797363281252 0.030000000000000027 Z M 7.126797363281252 1.0155 L 7.162797363281252 1.08 L 6.726297363281252 1.08 L 6.726297363281252 1.0155 L 7.126797363281252 1.0155 Z M 7.236297363281252 0.774 L 7.167297363281252 1.08 L 6.873297363281252 1.08 L 6.927297363281252 1.0155 Q 7.002297363281252 1.0155 7.059297363281252 0.9862500000000001 Q 7.116297363281252 0.9570000000000001 7.156797363281252 0.9022500000000001 Q 7.197297363281252 0.8475 7.221297363281252 0.774 L 7.236297363281252 0.774 Z M 6.510297363281252 0.9705 L 6.510297363281252 1.08 L 6.390297363281252 1.08 L 6.390297363281252 1.0650000000000002 Q 6.390297363281252 1.0650000000000002 6.400047363281252 1.0650000000000002 Q 6.4097973632812515 1.0650000000000002 6.4097973632812515 1.0650000000000002 Q 6.448797363281252 1.0650000000000002 6.476547363281252 1.03725 Q 6.5042973632812515 1.0095 6.505797363281252 0.9705 L 6.510297363281252 0.9705 Z M 6.510297363281252 0.13950000000000007 L 6.505797363281252 0.13950000000000007 Q 6.5042973632812515 0.10050000000000003 6.476547363281252 0.07275000000000009 Q 6.448797363281252 0.04500000000000015 6.4097973632812515 0.04500000000000015 Q 6.4097973632812515 0.04500000000000015 6.400047363281252 0.04500000000000015 Q 6.390297363281252 0.04500000000000015 6.390297363281252 0.04500000000000015 L 6.390297363281252 0.030000000000000027 L 6.510297363281252 0.030000000000000027 L 6.510297363281252 0.13950000000000007 Z M 6.726297363281252 0.13950000000000007 L 6.726297363281252 0.030000000000000027 L 6.846297363281252 0.030000000000000027 L 6.846297363281252 0.04500000000000015 Q 6.844797363281252 0.04500000000000015 6.835797363281252 0.04500000000000015 Q 6.826797363281252 0.04500000000000015 6.826797363281252 0.04500000000000015 Q 6.787797363281252 0.04500000000000015 6.760047363281252 0.07275000000000009 Q 6.732297363281252 0.10050000000000003 6.730797363281252 0.13950000000000007 L 6.726297363281252 0.13950000000000007 Z" fill="#000000" fill-rule="nonzero"></path></g><g><path d=" M 0.5325 1.8682125 L 0.5235 1.9859625 Q 0.504 2.0182125 0.474375 2.0433375000000003 Q 0.44475000000000003 2.0684625000000003 0.404625 2.0830875 Q 0.3645 2.0977125 0.31275000000000003 2.0977125 Q 0.23475000000000001 2.0969625 0.17400000000000002 2.0632125 Q 0.11325 2.0294625 0.079125 1.9683375 Q 0.045 1.9072125000000002 0.045 1.8239625000000002 Q 0.045 1.7422125000000002 0.07875 1.6810875 Q 0.1125 1.6199625000000002 0.173625 1.5858375000000002 Q 0.23475000000000001 1.5517125000000003 0.31725000000000003 1.5517125000000003 Q 0.37275 1.5517125000000003 0.417375 1.5663375000000002 Q 0.462 1.5809625 0.495 1.6027125000000002 L 0.51 1.7084625 L 0.50325 1.7084625 Q 0.48675 1.6424625000000002 0.43575 1.6083375000000002 Q 0.38475 1.5742125000000002 0.31725000000000003 1.5742125000000002 Q 0.25125000000000003 1.5742125000000002 0.202875 1.6053375 Q 0.1545 1.6364625000000002 0.12787500000000002 1.6923375 Q 0.10125 1.7482125000000002 0.10125 1.8232125000000001 Q 0.10125 1.8982125 0.12787500000000002 1.9544625000000002 Q 0.1545 2.0107125000000003 0.202125 2.0422125 Q 0.24975 2.0737125 0.31275000000000003 2.0752125 Q 0.366 2.0752125 0.411375 2.0553375000000003 Q 0.45675 2.0354625 0.4875 1.9900875000000002 Q 0.51825 1.9447125 0.5265 1.8682125 L 0.5325 1.8682125 Z M 0.8992115478515625 1.5517125000000003 Q 0.9794615478515626 1.5517125000000003 1.0402115478515626 1.5858375000000002 Q 1.1009615478515626 1.6199625000000002 1.1350865478515626 1.6814625 Q 1.1692115478515626 1.7429625000000002 1.1692115478515626 1.8247125000000002 Q 1.1692115478515626 1.9064625000000002 1.1350865478515626 1.9679625 Q 1.1009615478515626 2.0294625 1.0402115478515626 2.0635875 Q 0.9794615478515626 2.0977125 0.8992115478515625 2.0977125 Q 0.8197115478515625 2.0977125 0.7589615478515626 2.0635875 Q 0.6982115478515626 2.0294625 0.6640865478515625 1.9679625 Q 0.6299615478515626 1.9064625000000002 0.6299615478515626 1.8247125000000002 Q 0.6299615478515626 1.7429625000000002 0.6640865478515625 1.6814625 Q 0.6982115478515626 1.6199625000000002 0.7589615478515626 1.5858375000000002 Q 0.8197115478515625 1.5517125000000003 0.8992115478515625 1.5517125000000003 Z M 0.8992115478515625 2.0752125 Q 0.9629615478515625 2.0752125 1.0105865478515625 2.0437125000000003 Q 1.0582115478515626 2.0122125 1.0848365478515625 1.9559625 Q 1.1114615478515626 1.8997125000000001 1.1114615478515626 1.8247125000000002 Q 1.1114615478515626 1.7497125000000002 1.0848365478515625 1.6934625 Q 1.0582115478515626 1.6372125000000002 1.0105865478515625 1.6057125 Q 0.9629615478515625 1.5742125000000002 0.8992115478515625 1.5742125000000002 Q 0.8362115478515626 1.5742125000000002 0.7885865478515626 1.6057125 Q 0.7409615478515625 1.6372125000000002 0.7143365478515625 1.6934625 Q 0.6877115478515625 1.7497125000000002 0.6877115478515625 1.8247125000000002 Q 0.6877115478515625 1.8997125000000001 0.7143365478515625 1.9559625 Q 0.7409615478515625 2.0122125 0.7885865478515626 2.0437125000000003 Q 0.8362115478515626 2.0752125 0.8992115478515625 2.0752125 Z M 1.2929106445312502 1.5509625000000002 L 1.7286606445312502 2.0159625 L 1.73541064453125 2.0977125 L 1.2996606445312502 1.6334625000000003 L 1.2929106445312502 1.5509625000000002 Z M 1.2944106445312502 2.0339625000000003 L 1.2944106445312502 2.0872125 L 1.23216064453125 2.0872125 L 1.23216064453125 2.0797125000000003 Q 1.23216064453125 2.0797125000000003 1.23891064453125 2.0797125000000003 Q 1.2456606445312501 2.0797125000000003 1.2464106445312502 2.0797125000000003 Q 1.2651606445312502 2.0797125000000003 1.27866064453125 2.0662125000000002 Q 1.2921606445312501 2.0527125 1.2921606445312501 2.0339625000000003 L 1.2944106445312502 2.0339625000000003 Z M 1.32666064453125 2.0339625000000003 Q 1.32666064453125 2.0527125 1.3401606445312502 2.0662125000000002 Q 1.3536606445312502 2.0797125000000003 1.37241064453125 2.0797125000000003 Q 1.37316064453125 2.0797125000000003 1.3799106445312501 2.0797125000000003 Q 1.3866606445312502 2.0797125000000003 1.3866606445312502 2.0797125000000003 L 1.3866606445312502 2.0872125 L 1.32441064453125 2.0872125 L 1.32441064453125 2.0339625000000003 L 1.32666064453125 2.0339625000000003 Z M 1.2929106445312502 1.5509625000000002 L 1.32591064453125 1.5929625 L 1.32666064453125 2.0872125 L 1.2921606445312501 2.0872125 L 1.2921606445312501 1.6447125000000002 Q 1.2921606445312501 1.6064625000000001 1.2887856445312502 1.5787125 Q 1.28541064453125 1.5509625000000002 1.28541064453125 1.5509625000000002 L 1.2929106445312502 1.5509625000000002 Z M 1.73541064453125 1.5622125000000002 L 1.73541064453125 2.0017125 Q 1.73541064453125 2.0257125 1.73691064453125 2.0478375 Q 1.7384106445312502 2.0699625 1.7402856445312502 2.0838375 Q 1.7421606445312503 2.0977125 1.7421606445312503 2.0977125 L 1.73541064453125 2.0977125 L 1.70166064453125 2.0579625 L 1.70166064453125 1.5622125000000002 L 1.73541064453125 1.5622125000000002 Z M 1.79541064453125 1.5622125000000002 L 1.79541064453125 1.5697125 Q 1.79541064453125 1.5697125 1.7886606445312503 1.5697125 Q 1.78191064453125 1.5697125 1.78191064453125 1.5697125 Q 1.7631606445312502 1.5697125 1.7496606445312501 1.5828375000000001 Q 1.73616064453125 1.5959625000000002 1.73541064453125 1.6154625 L 1.7331606445312502 1.6154625 L 1.7331606445312502 1.5622125000000002 L 1.79541064453125 1.5622125000000002 Z M 1.64091064453125 1.5622125000000002 L 1.7031606445312502 1.5622125000000002 L 1.7031606445312502 1.6154625 L 1.70166064453125 1.6154625 Q 1.70091064453125 1.5959625000000002 1.68778564453125 1.5828375000000001 Q 1.6746606445312502 1.5697125 1.6551606445312501 1.5697125 Q 1.6551606445312501 1.5697125 1.64841064453125 1.5697125 Q 1.64166064453125 1.5697125 1.64091064453125 1.5697125 L 1.64091064453125 1.5622125000000002 Z M 2.024867431640625 1.5517125000000003 Q 2.036867431640625 1.5517125000000003 2.050742431640625 1.5532125 Q 2.064617431640625 1.5547125000000002 2.077742431640625 1.5573375 Q 2.0908674316406253 1.5599625000000001 2.1017424316406252 1.5625875000000002 Q 2.112617431640625 1.5652125000000001 2.118617431640625 1.5682125 L 2.118617431640625 1.6514625 L 2.111867431640625 1.6514625 Q 2.111867431640625 1.6154625 2.087117431640625 1.5948375000000001 Q 2.062367431640625 1.5742125000000002 2.027117431640625 1.5742125000000002 Q 1.9858674316406253 1.5742125000000002 1.9603674316406252 1.6000875 Q 1.9348674316406251 1.6259625000000002 1.9348674316406251 1.6604625000000002 Q 1.9348674316406251 1.6747125 1.9412424316406252 1.6938375 Q 1.9476174316406252 1.7129625000000002 1.9648674316406252 1.7294625000000001 L 2.112617431640625 1.8659625000000002 Q 2.135117431640625 1.8869625 2.142617431640625 1.9109625000000001 Q 2.1501174316406253 1.9349625000000001 2.1501174316406253 1.9574625 Q 2.1501174316406253 2.0197125000000002 2.112242431640625 2.0587125 Q 2.074367431640625 2.0977125 2.0098674316406253 2.0977125 Q 1.991867431640625 2.0977125 1.9674924316406253 2.0939625 Q 1.9431174316406252 2.0902125000000003 1.9202424316406252 2.0808375000000003 Q 1.8973674316406253 2.0714625 1.8823674316406251 2.0564625000000003 Q 1.8801174316406253 2.0444625000000003 1.8801174316406253 2.0264625 Q 1.8801174316406253 2.0084625000000003 1.8831174316406252 1.9885875000000002 Q 1.8861174316406253 1.9687125 1.8913674316406253 1.9522125000000001 L 1.898117431640625 1.9522125000000001 Q 1.8943674316406252 1.9904625 1.9078674316406252 2.0189625 Q 1.9213674316406253 2.0474625 1.9472424316406252 2.0620875 Q 1.9731174316406253 2.0767125 2.006117431640625 2.0752125 Q 2.047367431640625 2.0729625 2.076992431640625 2.0463375 Q 2.1066174316406254 2.0197125000000002 2.1066174316406254 1.9747125 Q 2.1066174316406254 1.9529625000000002 2.099117431640625 1.9353375000000002 Q 2.0916174316406253 1.9177125000000002 2.077367431640625 1.9049625000000001 L 1.933367431640625 1.7714625000000002 Q 1.9108674316406251 1.7504625000000003 1.9018674316406252 1.7253375000000002 Q 1.892867431640625 1.7002125000000001 1.892867431640625 1.6784625000000002 Q 1.892867431640625 1.6469625 1.9078674316406252 1.6177125 Q 1.9228674316406251 1.5884625 1.9524924316406251 1.5700875 Q 1.9821174316406251 1.5517125000000003 2.024867431640625 1.5517125000000003 Z M 2.118617431640625 1.5592125000000001 L 2.118617431640625 1.5749625000000003 L 2.061617431640625 1.5749625000000003 L 2.061617431640625 1.5592125000000001 L 2.118617431640625 1.5592125000000001 Z M 2.45684912109375 1.5644625 L 2.45684912109375 2.0872125 L 2.40809912109375 2.0872125 L 2.40809912109375 1.5644625 L 2.45684912109375 1.5644625 Z M 2.6495991210937504 1.5614625000000002 L 2.6495991210937504 1.5839625000000002 L 2.2153491210937504 1.5839625000000002 L 2.2153491210937504 1.5614625000000002 L 2.6495991210937504 1.5614625000000002 Z M 2.6495991210937504 1.5817125 L 2.6495991210937504 1.6424625000000002 L 2.64209912109375 1.6417125000000001 L 2.64209912109375 1.6289625 Q 2.64209912109375 1.6102125 2.6289741210937505 1.5974625000000002 Q 2.6158491210937505 1.5847125000000002 2.59784912109375 1.5839625000000002 L 2.59784912109375 1.5817125 L 2.6495991210937504 1.5817125 Z M 2.6495991210937504 1.5479625000000001 L 2.6495991210937504 1.5697125 L 2.5580991210937505 1.5614625000000002 Q 2.57459912109375 1.5614625000000002 2.59297412109375 1.5592125000000001 Q 2.6113491210937503 1.5569625 2.6270991210937504 1.5539625000000001 Q 2.64284912109375 1.5509625000000002 2.6495991210937504 1.5479625000000001 Z M 2.41034912109375 2.0324625000000003 L 2.41034912109375 2.0872125 L 2.35034912109375 2.0872125 L 2.35034912109375 2.0797125000000003 Q 2.35034912109375 2.0797125000000003 2.3552241210937503 2.0797125000000003 Q 2.36009912109375 2.0797125000000003 2.36009912109375 2.0797125000000003 Q 2.3795991210937504 2.0797125000000003 2.3934741210937505 2.0658375 Q 2.40734912109375 2.0519625 2.40809912109375 2.0324625000000003 L 2.41034912109375 2.0324625000000003 Z M 2.45459912109375 2.0324625000000003 L 2.45684912109375 2.0324625000000003 Q 2.4575991210937502 2.0519625 2.4714741210937503 2.0658375 Q 2.4853491210937504 2.0797125000000003 2.5048491210937502 2.0797125000000003 Q 2.5048491210937502 2.0797125000000003 2.5097241210937504 2.0797125000000003 Q 2.51459912109375 2.0797125000000003 2.51459912109375 2.0797125000000003 L 2.51459912109375 2.0872125 L 2.45459912109375 2.0872125 L 2.45459912109375 2.0324625000000003 Z M 2.26709912109375 1.5817125 L 2.26709912109375 1.5839625000000002 Q 2.2483491210937503 1.5847125000000002 2.2355991210937503 1.5974625000000002 Q 2.22284912109375 1.6102125 2.22284912109375 1.6289625 L 2.22284912109375 1.6417125000000001 L 2.2153491210937504 1.6424625000000002 L 2.2153491210937504 1.5817125 L 2.26709912109375 1.5817125 Z M 2.2153491210937504 1.5479625000000001 Q 2.22284912109375 1.5509625000000002 2.2382241210937504 1.5539625000000001 Q 2.25359912109375 1.5569625 2.2723491210937503 1.5592125000000001 Q 2.29109912109375 1.5614625000000002 2.3068491210937503 1.5614625000000002 L 2.2153491210937504 1.5697125 L 2.2153491210937504 1.5479625000000001 Z M 2.8130848388671876 1.5622125000000002 L 2.9188348388671876 1.5622125000000002 Q 2.9525848388671876 1.5622125000000002 2.9799598388671877 1.5719625000000002 Q 3.0073348388671874 1.5817125 3.0260848388671877 1.6000875 Q 3.0448348388671875 1.6184625000000001 3.0549598388671875 1.6443375000000002 Q 3.0650848388671874 1.6702125 3.0650848388671874 1.7032125000000002 Q 3.0650848388671874 1.7392125 3.0482098388671877 1.7722125000000002 Q 3.0313348388671875 1.8052125 3.0024598388671877 1.8258375 Q 2.9735848388671875 1.8464625000000001 2.9375848388671875 1.8464625000000001 Q 2.9503348388671875 1.8517125 2.9653348388671876 1.8678375 Q 2.9803348388671878 1.8839625000000002 2.9915848388671877 1.8989625 Q 2.9915848388671877 1.8989625 3.0017098388671877 1.9135875000000002 Q 3.0118348388671876 1.9282125 3.0272098388671878 1.9492125000000002 Q 3.0425848388671874 1.9702125000000001 3.0583348388671876 1.9904625 Q 3.0740848388671878 2.0107125000000003 3.0853348388671877 2.0227125 Q 3.1003348388671874 2.0392125 3.1153348388671875 2.0519625 Q 3.1303348388671877 2.0647125 3.1479598388671874 2.0722125 Q 3.1655848388671877 2.0797125000000003 3.1873348388671876 2.0797125000000003 L 3.1873348388671876 2.0872125 L 3.1460848388671874 2.0872125 Q 3.111584838867188 2.0872125 3.0864598388671878 2.0767125 Q 3.0613348388671877 2.0662125000000002 3.0440848388671875 2.0508375 Q 3.0268348388671877 2.0354625 3.0148348388671877 2.0212125000000003 Q 3.0125848388671876 2.0182125 3.0024598388671877 2.0039625 Q 2.9923348388671878 1.9897125000000002 2.9784598388671877 1.9698375000000001 Q 2.9645848388671876 1.9499625 2.9510848388671875 1.9304625000000002 Q 2.9375848388671875 1.9109625000000001 2.9278348388671875 1.8970875 Q 2.9180848388671876 1.8832125000000002 2.9165848388671876 1.8809625 Q 2.9023348388671875 1.8622125 2.8850848388671877 1.8464625000000001 Q 2.8678348388671875 1.8307125000000002 2.8475848388671876 1.8307125000000002 L 2.8475848388671876 1.8232125000000001 Q 2.8475848388671876 1.8232125000000001 2.8592098388671876 1.8235875000000001 Q 2.8708348388671876 1.8239625000000002 2.887334838867188 1.8232125000000001 Q 2.9068348388671876 1.8224625 2.9300848388671876 1.8172125000000001 Q 2.9533348388671876 1.8119625000000001 2.9735848388671875 1.7954625000000002 Q 2.993834838867188 1.7789625 3.0043348388671878 1.7452125 Q 3.0065848388671874 1.7369625000000002 3.0080848388671875 1.7245875000000002 Q 3.0095848388671875 1.7122125000000001 3.0088348388671875 1.7002125000000001 Q 3.0080848388671875 1.6492125000000002 2.9829598388671874 1.6188375000000002 Q 2.957834838867188 1.5884625 2.9158348388671875 1.5862125000000002 Q 2.8948348388671876 1.5847125000000002 2.8727098388671877 1.5850875000000002 Q 2.8505848388671877 1.5854625000000002 2.8355848388671876 1.5854625000000002 Q 2.8205848388671875 1.5854625000000002 2.8205848388671875 1.5854625000000002 Q 2.8205848388671875 1.5847125000000002 2.8187098388671874 1.5790875 Q 2.8168348388671878 1.5734625000000002 2.8149598388671877 1.5678375 Q 2.8130848388671876 1.5622125000000002 2.8130848388671876 1.5622125000000002 Z M 2.8228348388671876 1.5622125000000002 L 2.8228348388671876 2.0872125 L 2.7740848388671875 2.0872125 L 2.7740848388671875 1.5622125000000002 L 2.8228348388671876 1.5622125000000002 Z M 2.7763348388671876 2.0324625000000003 L 2.7763348388671876 2.0872125 L 2.7163348388671875 2.0872125 L 2.7163348388671875 2.0797125000000003 Q 2.7163348388671875 2.0797125000000003 2.7212098388671877 2.0797125000000003 Q 2.7260848388671874 2.0797125000000003 2.7260848388671874 2.0797125000000003 Q 2.7455848388671877 2.0797125000000003 2.7594598388671874 2.0658375 Q 2.7733348388671875 2.0519625 2.7740848388671875 2.0324625000000003 L 2.7763348388671876 2.0324625000000003 Z M 2.7763348388671876 1.6169625 L 2.7740848388671875 1.6169625 Q 2.7733348388671875 1.5974625000000002 2.7594598388671874 1.5835875000000001 Q 2.7455848388671877 1.5697125 2.7260848388671874 1.5697125 Q 2.7260848388671874 1.5697125 2.7212098388671877 1.5697125 Q 2.7163348388671875 1.5697125 2.7163348388671875 1.5697125 L 2.7163348388671875 1.5622125000000002 L 2.7763348388671876 1.5622125000000002 L 2.7763348388671876 1.6169625 Z M 2.8205848388671875 2.0324625000000003 L 2.8228348388671876 2.0324625000000003 Q 2.8228348388671876 2.0519625 2.8370848388671877 2.0658375 Q 2.8513348388671877 2.0797125000000003 2.8708348388671876 2.0797125000000003 Q 2.8708348388671876 2.0797125000000003 2.8753348388671878 2.0797125000000003 Q 2.8798348388671875 2.0797125000000003 2.8798348388671875 2.0797125000000003 L 2.8798348388671875 2.0872125 L 2.8205848388671875 2.0872125 L 2.8205848388671875 2.0324625000000003 Z M 3.28700390625 1.5622125000000002 L 3.28700390625 1.8922125 Q 3.28700390625 1.9462125000000001 3.30687890625 1.9874625000000001 Q 3.32675390625 2.0287125 3.36275390625 2.0515875 Q 3.39875390625 2.0744625 3.44600390625 2.0744625 Q 3.4962539062499998 2.0744625 3.53375390625 2.0527125 Q 3.57125390625 2.0309625000000002 3.59225390625 1.9923375 Q 3.6132539062499998 1.9537125000000002 3.6132539062499998 1.9019625000000002 L 3.6132539062499998 1.5622125000000002 L 3.6485039062499998 1.5622125000000002 L 3.6485039062499998 1.9019625000000002 Q 3.6485039062499998 1.9604625000000002 3.62337890625 2.0043375 Q 3.59825390625 2.0482125 3.55250390625 2.0729625 Q 3.50675390625 2.0977125 3.44600390625 2.0977125 Q 3.38375390625 2.0977125 3.33687890625 2.0733375 Q 3.29000390625 2.0489625 3.26412890625 2.0050875 Q 3.2382539062499998 1.9612125000000002 3.2382539062499998 1.9027125000000003 L 3.2382539062499998 1.5622125000000002 L 3.28700390625 1.5622125000000002 Z M 3.24050390625 1.5622125000000002 L 3.24050390625 1.6072125000000002 L 3.2382539062499998 1.6072125000000002 Q 3.2382539062499998 1.5907125000000002 3.2266289062499998 1.5802125 Q 3.2150039062499998 1.5697125 3.19850390625 1.5697125 Q 3.19850390625 1.5697125 3.19250390625 1.5697125 Q 3.18650390625 1.5697125 3.18650390625 1.5697125 L 3.18650390625 1.5622125000000002 L 3.24050390625 1.5622125000000002 Z M 3.33875390625 1.5622125000000002 L 3.33875390625 1.5697125 Q 3.33875390625 1.5697125 3.33275390625 1.5697125 Q 3.32675390625 1.5697125 3.32675390625 1.5697125 Q 3.31025390625 1.5697125 3.29862890625 1.5802125 Q 3.28700390625 1.5907125000000002 3.28700390625 1.6072125000000002 L 3.2855039062499998 1.6072125000000002 L 3.2855039062499998 1.5622125000000002 L 3.33875390625 1.5622125000000002 Z M 3.61550390625 1.5622125000000002 L 3.61550390625 1.6072125000000002 L 3.6132539062499998 1.6072125000000002 Q 3.6132539062499998 1.5907125000000002 3.6016289062499998 1.5802125 Q 3.5900039062499998 1.5697125 3.57350390625 1.5697125 Q 3.57350390625 1.5697125 3.56750390625 1.5697125 Q 3.56150390625 1.5697125 3.56150390625 1.5697125 L 3.56150390625 1.5622125000000002 L 3.61550390625 1.5622125000000002 Z M 3.70025390625 1.5622125000000002 L 3.70025390625 1.5697125 Q 3.70025390625 1.5697125 3.69425390625 1.5697125 Q 3.68825390625 1.5697125 3.68825390625 1.5697125 Q 3.67175390625 1.5697125 3.6601289062499998 1.5802125 Q 3.6485039062499998 1.5907125000000002 3.6485039062499998 1.6072125000000002 L 3.64700390625 1.6072125000000002 L 3.64700390625 1.5622125000000002 L 3.70025390625 1.5622125000000002 Z M 4.2664727783203125 1.8682125 L 4.257472778320313 1.9859625 Q 4.237972778320312 2.0182125 4.208347778320313 2.0433375000000003 Q 4.178722778320313 2.0684625000000003 4.138597778320313 2.0830875 Q 4.098472778320312 2.0977125 4.046722778320313 2.0977125 Q 3.9687227783203127 2.0969625 3.9079727783203126 2.0632125 Q 3.8472227783203126 2.0294625 3.8130977783203126 1.9683375 Q 3.7789727783203126 1.9072125000000002 3.7789727783203126 1.8239625000000002 Q 3.7789727783203126 1.7422125000000002 3.8127227783203126 1.6810875 Q 3.8464727783203125 1.6199625000000002 3.9075977783203126 1.5858375000000002 Q 3.9687227783203127 1.5517125000000003 4.051222778320312 1.5517125000000003 Q 4.106722778320313 1.5517125000000003 4.1513477783203125 1.5663375000000002 Q 4.1959727783203125 1.5809625 4.228972778320313 1.6027125000000002 L 4.2439727783203125 1.7084625 L 4.237222778320312 1.7084625 Q 4.2207227783203125 1.6424625000000002 4.169722778320312 1.6083375000000002 Q 4.118722778320313 1.5742125000000002 4.051222778320312 1.5742125000000002 Q 3.985222778320313 1.5742125000000002 3.936847778320313 1.6053375 Q 3.888472778320313 1.6364625000000002 3.8618477783203127 1.6923375 Q 3.8352227783203126 1.7482125000000002 3.8352227783203126 1.8232125000000001 Q 3.8352227783203126 1.8982125 3.8618477783203127 1.9544625000000002 Q 3.888472778320313 2.0107125000000003 3.936097778320313 2.0422125 Q 3.983722778320313 2.0737125 4.046722778320313 2.0752125 Q 4.099972778320312 2.0752125 4.145347778320312 2.0553375000000003 Q 4.190722778320312 2.0354625 4.2214727783203125 1.9900875000000002 Q 4.252222778320313 1.9447125 4.260472778320313 1.8682125 L 4.2664727783203125 1.8682125 Z M 4.5679343261718754 1.5644625 L 4.5679343261718754 2.0872125 L 4.519184326171875 2.0872125 L 4.519184326171875 1.5644625 L 4.5679343261718754 1.5644625 Z M 4.760684326171876 1.5614625000000002 L 4.760684326171876 1.5839625000000002 L 4.326434326171875 1.5839625000000002 L 4.326434326171875 1.5614625000000002 L 4.760684326171876 1.5614625000000002 Z M 4.760684326171876 1.5817125 L 4.760684326171876 1.6424625000000002 L 4.753184326171875 1.6417125000000001 L 4.753184326171875 1.6289625 Q 4.753184326171875 1.6102125 4.740059326171876 1.5974625000000002 Q 4.726934326171875 1.5847125000000002 4.7089343261718755 1.5839625000000002 L 4.7089343261718755 1.5817125 L 4.760684326171876 1.5817125 Z M 4.760684326171876 1.5479625000000001 L 4.760684326171876 1.5697125 L 4.669184326171876 1.5614625000000002 Q 4.6856843261718755 1.5614625000000002 4.704059326171875 1.5592125000000001 Q 4.722434326171875 1.5569625 4.738184326171876 1.5539625000000001 Q 4.753934326171875 1.5509625000000002 4.760684326171876 1.5479625000000001 Z M 4.5214343261718755 2.0324625000000003 L 4.5214343261718755 2.0872125 L 4.461434326171876 2.0872125 L 4.461434326171876 2.0797125000000003 Q 4.461434326171876 2.0797125000000003 4.466309326171875 2.0797125000000003 Q 4.471184326171875 2.0797125000000003 4.471184326171875 2.0797125000000003 Q 4.490684326171875 2.0797125000000003 4.504559326171876 2.0658375 Q 4.518434326171875 2.0519625 4.519184326171875 2.0324625000000003 L 4.5214343261718755 2.0324625000000003 Z M 4.565684326171875 2.0324625000000003 L 4.5679343261718754 2.0324625000000003 Q 4.5686843261718755 2.0519625 4.582559326171875 2.0658375 Q 4.596434326171876 2.0797125000000003 4.6159343261718755 2.0797125000000003 Q 4.6159343261718755 2.0797125000000003 4.620809326171876 2.0797125000000003 Q 4.625684326171876 2.0797125000000003 4.625684326171876 2.0797125000000003 L 4.625684326171876 2.0872125 L 4.565684326171875 2.0872125 L 4.565684326171875 2.0324625000000003 Z M 4.378184326171875 1.5817125 L 4.378184326171875 1.5839625000000002 Q 4.3594343261718755 1.5847125000000002 4.346684326171875 1.5974625000000002 Q 4.3339343261718755 1.6102125 4.3339343261718755 1.6289625 L 4.3339343261718755 1.6417125000000001 L 4.326434326171875 1.6424625000000002 L 4.326434326171875 1.5817125 L 4.378184326171875 1.5817125 Z M 4.326434326171875 1.5479625000000001 Q 4.3339343261718755 1.5509625000000002 4.349309326171875 1.5539625000000001 Q 4.364684326171876 1.5569625 4.383434326171876 1.5592125000000001 Q 4.402184326171875 1.5614625000000002 4.417934326171875 1.5614625000000002 L 4.326434326171875 1.5697125 L 4.326434326171875 1.5479625000000001 Z M 4.933920043945314 1.5622125000000002 L 4.933920043945314 2.0872125 L 4.885170043945314 2.0872125 L 4.885170043945314 1.5622125000000002 L 4.933920043945314 1.5622125000000002 Z M 4.887420043945314 2.0324625000000003 L 4.887420043945314 2.0872125 L 4.827420043945313 2.0872125 L 4.827420043945313 2.0797125000000003 Q 4.827420043945313 2.0797125000000003 4.832295043945313 2.0797125000000003 Q 4.837170043945314 2.0797125000000003 4.837170043945314 2.0797125000000003 Q 4.856670043945313 2.0797125000000003 4.870545043945313 2.0658375 Q 4.884420043945314 2.0519625 4.885170043945314 2.0324625000000003 L 4.887420043945314 2.0324625000000003 Z M 4.887420043945314 1.6169625 L 4.885170043945314 1.6169625 Q 4.884420043945314 1.5974625000000002 4.870545043945313 1.5835875000000001 Q 4.856670043945313 1.5697125 4.837170043945314 1.5697125 Q 4.837170043945314 1.5697125 4.832295043945313 1.5697125 Q 4.827420043945313 1.5697125 4.827420043945313 1.5697125 L 4.827420043945313 1.5622125000000002 L 4.887420043945314 1.5622125000000002 L 4.887420043945314 1.6169625 Z M 4.931670043945314 2.0324625000000003 L 4.933920043945314 2.0324625000000003 Q 4.934670043945314 2.0519625 4.948545043945313 2.0658375 Q 4.962420043945313 2.0797125000000003 4.981920043945314 2.0797125000000003 Q 4.981920043945314 2.0797125000000003 4.986420043945313 2.0797125000000003 Q 4.990920043945313 2.0797125000000003 4.991670043945313 2.0797125000000003 L 4.991670043945313 2.0872125 L 4.931670043945314 2.0872125 L 4.931670043945314 2.0324625000000003 Z M 4.931670043945314 1.6169625 L 4.931670043945314 1.5622125000000002 L 4.991670043945313 1.5622125000000002 L 4.991670043945313 1.5697125 Q 4.990920043945313 1.5697125 4.986420043945313 1.5697125 Q 4.981920043945314 1.5697125 4.981920043945314 1.5697125 Q 4.962420043945313 1.5697125 4.948545043945313 1.5835875000000001 Q 4.934670043945314 1.5974625000000002 4.933920043945314 1.6169625 L 4.931670043945314 1.6169625 Z M 5.350119140625001 1.5517125000000003 Q 5.430369140625001 1.5517125000000003 5.491119140625001 1.5858375000000002 Q 5.551869140625001 1.6199625000000002 5.585994140625001 1.6814625 Q 5.620119140625001 1.7429625000000002 5.620119140625001 1.8247125000000002 Q 5.620119140625001 1.9064625000000002 5.585994140625001 1.9679625 Q 5.551869140625001 2.0294625 5.491119140625001 2.0635875 Q 5.430369140625001 2.0977125 5.350119140625001 2.0977125 Q 5.270619140625001 2.0977125 5.209869140625001 2.0635875 Q 5.149119140625001 2.0294625 5.114994140625001 1.9679625 Q 5.080869140625001 1.9064625000000002 5.080869140625001 1.8247125000000002 Q 5.080869140625001 1.7429625000000002 5.114994140625001 1.6814625 Q 5.149119140625001 1.6199625000000002 5.209869140625001 1.5858375000000002 Q 5.270619140625001 1.5517125000000003 5.350119140625001 1.5517125000000003 Z M 5.350119140625001 2.0752125 Q 5.4138691406250015 2.0752125 5.4614941406250015 2.0437125000000003 Q 5.5091191406250015 2.0122125 5.535744140625001 1.9559625 Q 5.562369140625001 1.8997125000000001 5.562369140625001 1.8247125000000002 Q 5.562369140625001 1.7497125000000002 5.535744140625001 1.6934625 Q 5.5091191406250015 1.6372125000000002 5.4614941406250015 1.6057125 Q 5.4138691406250015 1.5742125000000002 5.350119140625001 1.5742125000000002 Q 5.287119140625001 1.5742125000000002 5.239494140625001 1.6057125 Q 5.191869140625001 1.6372125000000002 5.165244140625001 1.6934625 Q 5.138619140625001 1.7497125000000002 5.138619140625001 1.8247125000000002 Q 5.138619140625001 1.8997125000000001 5.165244140625001 1.9559625 Q 5.191869140625001 2.0122125 5.239494140625001 2.0437125000000003 Q 5.287119140625001 2.0752125 5.350119140625001 2.0752125 Z M 5.743818237304689 1.5509625000000002 L 6.1795682373046885 2.0159625 L 6.186318237304689 2.0977125 L 5.750568237304689 1.6334625000000003 L 5.743818237304689 1.5509625000000002 Z M 5.745318237304689 2.0339625000000003 L 5.745318237304689 2.0872125 L 5.683068237304689 2.0872125 L 5.683068237304689 2.0797125000000003 Q 5.683068237304689 2.0797125000000003 5.689818237304689 2.0797125000000003 Q 5.696568237304689 2.0797125000000003 5.697318237304689 2.0797125000000003 Q 5.716068237304689 2.0797125000000003 5.729568237304689 2.0662125000000002 Q 5.743068237304689 2.0527125 5.743068237304689 2.0339625000000003 L 5.745318237304689 2.0339625000000003 Z M 5.777568237304689 2.0339625000000003 Q 5.777568237304689 2.0527125 5.791068237304689 2.0662125000000002 Q 5.8045682373046885 2.0797125000000003 5.823318237304689 2.0797125000000003 Q 5.824068237304689 2.0797125000000003 5.830818237304689 2.0797125000000003 Q 5.837568237304689 2.0797125000000003 5.837568237304689 2.0797125000000003 L 5.837568237304689 2.0872125 L 5.775318237304689 2.0872125 L 5.775318237304689 2.0339625000000003 L 5.777568237304689 2.0339625000000003 Z M 5.743818237304689 1.5509625000000002 L 5.776818237304689 1.5929625 L 5.777568237304689 2.0872125 L 5.743068237304689 2.0872125 L 5.743068237304689 1.6447125000000002 Q 5.743068237304689 1.6064625000000001 5.739693237304689 1.5787125 Q 5.736318237304689 1.5509625000000002 5.736318237304689 1.5509625000000002 L 5.743818237304689 1.5509625000000002 Z M 6.186318237304689 1.5622125000000002 L 6.186318237304689 2.0017125 Q 6.186318237304689 2.0257125 6.187818237304689 2.0478375 Q 6.189318237304689 2.0699625 6.191193237304689 2.0838375 Q 6.193068237304689 2.0977125 6.193068237304689 2.0977125 L 6.186318237304689 2.0977125 L 6.152568237304688 2.0579625 L 6.152568237304688 1.5622125000000002 L 6.186318237304689 1.5622125000000002 Z M 6.246318237304688 1.5622125000000002 L 6.246318237304688 1.5697125 Q 6.246318237304688 1.5697125 6.239568237304689 1.5697125 Q 6.232818237304689 1.5697125 6.232818237304689 1.5697125 Q 6.214068237304689 1.5697125 6.200568237304688 1.5828375000000001 Q 6.187068237304689 1.5959625000000002 6.186318237304689 1.6154625 L 6.184068237304689 1.6154625 L 6.184068237304689 1.5622125000000002 L 6.246318237304688 1.5622125000000002 Z M 6.091818237304689 1.5622125000000002 L 6.154068237304688 1.5622125000000002 L 6.154068237304688 1.6154625 L 6.152568237304688 1.6154625 Q 6.151818237304689 1.5959625000000002 6.138693237304689 1.5828375000000001 Q 6.125568237304689 1.5697125 6.106068237304688 1.5697125 Q 6.106068237304688 1.5697125 6.099318237304689 1.5697125 Q 6.092568237304689 1.5697125 6.091818237304689 1.5697125 L 6.091818237304689 1.5622125000000002 Z M 6.328775024414064 2.0384625 Q 6.334025024414064 2.0279625 6.3452750244140645 2.0245875 Q 6.356525024414064 2.0212125000000003 6.3681500244140645 2.0260875 Q 6.379775024414064 2.0309625000000002 6.385775024414064 2.0459625000000004 Q 6.394775024414064 2.0669625000000003 6.392900024414065 2.0860875 Q 6.3910250244140645 2.1052125 6.381275024414064 2.1202125 Q 6.371525024414064 2.1352125 6.356150024414064 2.1442125 Q 6.340775024414064 2.1532125 6.322775024414064 2.1539625 L 6.3212750244140645 2.1479625 Q 6.3437750244140645 2.1404625 6.350525024414064 2.1277125000000003 Q 6.357275024414064 2.1149625000000003 6.354650024414064 2.1018375000000002 Q 6.352025024414064 2.0887125 6.346025024414065 2.0812125000000004 Q 6.341525024414064 2.0752125 6.335900024414064 2.0692125000000003 Q 6.330275024414064 2.0632125 6.327650024414064 2.0553375000000003 Q 6.325025024414064 2.0474625 6.328775024414064 2.0384625 Z M 6.78022741699219 1.5622125000000002 L 6.78022741699219 2.0872125 L 6.73147741699219 2.0872125 L 6.73147741699219 1.5622125000000002 L 6.78022741699219 1.5622125000000002 Z M 6.98272741699219 2.0639625 L 6.98272741699219 2.0872125 L 6.77797741699219 2.0872125 L 6.77797741699219 2.0639625 L 6.98272741699219 2.0639625 Z M 7.02847741699219 1.9657125000000002 L 6.98497741699219 2.0872125 L 6.86047741699219 2.0872125 L 6.88747741699219 2.0639625 Q 6.9272274169921895 2.0639625 6.9523524169921895 2.0515875 Q 6.97747741699219 2.0392125 6.993227416992189 2.0167125 Q 7.00897741699219 1.9942125000000002 7.0209774169921895 1.9657125000000002 L 7.02847741699219 1.9657125000000002 Z M 6.73372741699219 2.0324625000000003 L 6.73372741699219 2.0872125 L 6.67372741699219 2.0872125 L 6.67372741699219 2.0797125000000003 Q 6.67372741699219 2.0797125000000003 6.67860241699219 2.0797125000000003 Q 6.68347741699219 2.0797125000000003 6.68347741699219 2.0797125000000003 Q 6.70297741699219 2.0797125000000003 6.7168524169921895 2.0658375 Q 6.73072741699219 2.0519625 6.73147741699219 2.0324625000000003 L 6.73372741699219 2.0324625000000003 Z M 6.73372741699219 1.6169625 L 6.73147741699219 1.6169625 Q 6.73072741699219 1.5974625000000002 6.7168524169921895 1.5835875000000001 Q 6.70297741699219 1.5697125 6.68347741699219 1.5697125 Q 6.68347741699219 1.5697125 6.67860241699219 1.5697125 Q 6.67372741699219 1.5697125 6.67372741699219 1.5697125 L 6.67372741699219 1.5622125000000002 L 6.73372741699219 1.5622125000000002 L 6.73372741699219 1.6169625 Z M 6.77797741699219 1.6169625 L 6.77797741699219 1.5622125000000002 L 6.83797741699219 1.5622125000000002 L 6.83797741699219 1.5697125 Q 6.83722741699219 1.5697125 6.832727416992189 1.5697125 Q 6.82822741699219 1.5697125 6.82822741699219 1.5697125 Q 6.808727416992189 1.5697125 6.79485241699219 1.5835875000000001 Q 6.78097741699219 1.5974625000000002 6.78022741699219 1.6169625 L 6.77797741699219 1.6169625 Z M 7.197929443359378 1.5622125000000002 L 7.197929443359378 2.0872125 L 7.149179443359378 2.0872125 L 7.149179443359378 1.5622125000000002 L 7.197929443359378 1.5622125000000002 Z M 7.400429443359378 2.0639625 L 7.400429443359378 2.0872125 L 7.195679443359378 2.0872125 L 7.195679443359378 2.0639625 L 7.400429443359378 2.0639625 Z M 7.4461794433593775 1.9657125000000002 L 7.402679443359378 2.0872125 L 7.278179443359377 2.0872125 L 7.3051794433593775 2.0639625 Q 7.344929443359377 2.0639625 7.370054443359377 2.0515875 Q 7.395179443359377 2.0392125 7.410929443359377 2.0167125 Q 7.426679443359378 1.9942125000000002 7.438679443359377 1.9657125000000002 L 7.4461794433593775 1.9657125000000002 Z M 7.151429443359378 2.0324625000000003 L 7.151429443359378 2.0872125 L 7.091429443359377 2.0872125 L 7.091429443359377 2.0797125000000003 Q 7.091429443359377 2.0797125000000003 7.096304443359378 2.0797125000000003 Q 7.101179443359378 2.0797125000000003 7.101179443359378 2.0797125000000003 Q 7.120679443359378 2.0797125000000003 7.134554443359377 2.0658375 Q 7.148429443359378 2.0519625 7.149179443359378 2.0324625000000003 L 7.151429443359378 2.0324625000000003 Z M 7.151429443359378 1.6169625 L 7.149179443359378 1.6169625 Q 7.148429443359378 1.5974625000000002 7.134554443359377 1.5835875000000001 Q 7.120679443359378 1.5697125 7.101179443359378 1.5697125 Q 7.101179443359378 1.5697125 7.096304443359378 1.5697125 Q 7.091429443359377 1.5697125 7.091429443359377 1.5697125 L 7.091429443359377 1.5622125000000002 L 7.151429443359378 1.5622125000000002 L 7.151429443359378 1.6169625 Z M 7.195679443359378 1.6169625 L 7.195679443359378 1.5622125000000002 L 7.255679443359377 1.5622125000000002 L 7.255679443359377 1.5697125 Q 7.254929443359377 1.5697125 7.250429443359377 1.5697125 Q 7.245929443359378 1.5697125 7.245929443359378 1.5697125 Q 7.226429443359377 1.5697125 7.212554443359378 1.5835875000000001 Q 7.198679443359378 1.5974625000000002 7.197929443359378 1.6169625 L 7.195679443359378 1.6169625 Z M 7.99287780761719 1.8682125 L 7.983877807617191 1.9859625 Q 7.96437780761719 2.0182125 7.9347528076171905 2.0433375000000003 Q 7.90512780761719 2.0684625000000003 7.8650028076171905 2.0830875 Q 7.82487780761719 2.0977125 7.773127807617191 2.0977125 Q 7.69512780761719 2.0969625 7.634377807617191 2.0632125 Q 7.57362780761719 2.0294625 7.539502807617191 1.9683375 Q 7.50537780761719 1.9072125000000002 7.50537780761719 1.8239625000000002 Q 7.50537780761719 1.7422125000000002 7.539127807617191 1.6810875 Q 7.57287780761719 1.6199625000000002 7.634002807617191 1.5858375000000002 Q 7.69512780761719 1.5517125000000003 7.77762780761719 1.5517125000000003 Q 7.83312780761719 1.5517125000000003 7.87775280761719 1.5663375000000002 Q 7.92237780761719 1.5809625 7.95537780761719 1.6027125000000002 L 7.97037780761719 1.7084625 L 7.96362780761719 1.7084625 Q 7.94712780761719 1.6424625000000002 7.89612780761719 1.6083375000000002 Q 7.845127807617191 1.5742125000000002 7.77762780761719 1.5742125000000002 Q 7.71162780761719 1.5742125000000002 7.66325280761719 1.6053375 Q 7.61487780761719 1.6364625000000002 7.588252807617191 1.6923375 Q 7.5616278076171906 1.7482125000000002 7.5616278076171906 1.8232125000000001 Q 7.5616278076171906 1.8982125 7.588252807617191 1.9544625000000002 Q 7.61487780761719 2.0107125000000003 7.66250280761719 2.0422125 Q 7.71012780761719 2.0737125 7.773127807617191 2.0752125 Q 7.82637780761719 2.0752125 7.87175280761719 2.0553375000000003 Q 7.91712780761719 2.0354625 7.94787780761719 1.9900875000000002 Q 7.97862780761719 1.9447125 7.986877807617191 1.8682125 L 7.99287780761719 1.8682125 Z" fill="#F97316" fill-rule="nonzero"></path></g><g clip-path="url(&quot;#SvgjsClipPath1018&quot;)"><g clip-path="url(&quot;#SvgjsClipPath1008&quot;)"><path d=" M 4.736162924953119 -5.656338134880631 C 4.7009458222531 -5.656338134880631 4.560521899157004 -5.677536779224331 4.525304796456984 -5.677502587862487 C 4.501826727990305 -5.499844271717535 4.478314468161781 -5.322185955572584 4.454768016971412 -5.144527639427632 C 4.437125274259557 -5.324271628645109 4.431346934107807 -5.483022121689953 4.413738382757797 -5.662629345460052 L 4.275263367286847 -5.662219049117915 L 4.237584486534011 -5.366087664181151 L 4.215531058144194 -5.665638185302384 L 4.156892872580569 -5.664031191295684 L 4.0926814950362616 -5.241528532980986 L 4.039924223709923 -5.670390784598793 L 3.798669974533868 -5.674356982572776 L 3.769265403347444 -5.438812690824784 L 3.7312788003380057 -5.66546722849316 L 3.5952997542817178 -5.670185636427726 L 3.556492558588007 -5.148630602848994 L 3.519565887795754 -5.671006229111998 C 3.440652224658235 -5.6687154078684046 3.3893651818912165 -5.686118811047346 3.3101437964970954 -5.683862181165598 C 3.351412770243623 -5.361471830332119 3.364644827277514 -4.757686571516935 3.36826911163305 -4.547683227066917 L 4.670754849744249 -4.547683227066917 C 4.672930250122317 -4.918131722887697 4.694763644163578 -5.288203757277706 4.7361629249530965 -5.656338134880422 M 3.811731074758535 -1.7211175347291556 C 3.696618673924466 -2.0212412245708213 3.6265426990433998 -2.336744417627094 3.603779212019197 -2.657379596121998 C 3.2264248531222774 -2.457109802335842 3.043285125886927 -2.0180119147600446 3.1665034884462613 -1.6089623607817378 C 3.289721851005596 -1.1999128068034315 3.6849226291013224 -0.9350289462949091 4.110109274078554 -0.9765092960362098 C 4.535295919055786 -1.0179896457775088 4.871849117176481 -1.3542619452612747 4.913684475650692 -1.779413806674334 C 4.99389741053831 -1.5224999137734159 5.051099558904457 -1.1954937290909076 5.083649735380591 -0.7602718841699883 C 5.05872423259582 -0.7596222482949395 5.012805233638416 -0.7602718841699883 4.982101390701895 -0.7619814522622228 C 4.94216588006731 -0.7642722735058163 4.897580344221849 -0.7686145764600898 4.868244155759115 -0.7356541036418198 C 4.853867040096651 -0.7215745243510794 4.8472188575416 -0.7013922183939387 4.850413478471182 -0.681524395038263 C 4.853608099400764 -0.6616565716825873 4.866247972203409 -0.6445756636105351 4.884314095826113 -0.6357127529698232 C 4.915838531446907 -0.6147192567971906 4.95232071453518 -0.5977603413222292 4.983879341517818 -0.5767668451495966 C 4.768747292791098 -0.49470757672236765 4.820034335558117 -0.4828089828004192 4.606987959903923 -0.5641844239907554 C 4.561889553630792 -0.5812801049130947 4.474769963650549 -0.5219580921125759 4.535015143220873 -0.447933793718847 C 4.558949096512149 -0.418597605256112 4.588798155402554 -0.3916206207606603 4.612732108693828 -0.36225024093608216 C 4.435552471614702 -0.3508303260799588 4.434937027101498 -0.32046839676188377 4.289521165176078 -0.41774282120999473 C 4.249824994074406 -0.44420693527777644 4.220010126545846 -0.46742286997031357 4.171013905022422 -0.45001946679137195 C 4.131010011664147 -0.435898434349518 4.112717633077244 -0.40345083195891895 4.138224389013374 -0.3523689373629688 C 4.155149113126491 -0.31848529777489176 4.178399239180872 -0.2856273990421556 4.195323963293989 -0.2517779508159226 C 3.967848832941339 -0.287507923943612 4.006450880463982 -0.2517779508159226 3.862026568032058 -0.4281711865726212 C 3.8314594905429145 -0.4655423450688554 3.726286861508683 -0.45730222686428856 3.741843931148012 -0.3632075990677315 C 3.7479299935563644 -0.3258022492096533 3.760444031991517 -0.28757630666730183 3.766632668485404 -0.25017095680922274 C 3.6072325395655103 -0.3283324099861584 3.5917438526498713 -0.3022102095368231 3.513787547644003 -0.45901179495652134 C 3.4959738481229254 -0.4948101508078997 3.477647278174177 -0.535668828212291 3.4344635881643484 -0.544763730462976 C 3.415097098604075 -0.5502639149556448 3.394265801832028 -0.5460220532844264 3.378592240757305 -0.5333866890008574 C 3.3629186796825823 -0.5207513247172875 3.3543529865554973 -0.5012945722417212 3.3556183077505186 -0.48120198879371845 C 3.353019764250323 -0.4435914907645717 3.3564730917966354 -0.40334825787338424 3.353840356934595 -0.365532611673169 C 3.1760452753422648 -0.5115981094736366 3.1909869004683897 -0.4612684248382699 3.155906563215749 -0.686521116671015 C 3.148487037695454 -0.7343890232535655 3.053674391300159 -0.7803764049346578 3.019312072646257 -0.6913762900529585 C 3.0056355279083853 -0.6559882305437164 2.9970534960853707 -0.6167023557841809 2.983445334071189 -0.5813484876367827 C 2.885658039195407 -0.7295338498716211 2.859022968318402 -0.7146947988310304 2.871263475858797 -0.8895152319428741 C 2.874272315701129 -0.9323570083342565 2.8804951435568604 -0.9696597841068018 2.8470901830346094 -1.002004812411867 C 2.814403241111096 -1.0336318221181955 2.774672878647579 -1.0361961742565455 2.7410969613161047 -0.9859006809830237 C 2.720137656505316 -0.9543762453622291 2.703247123754045 -0.9178598709121122 2.682287818943257 -0.8863012439294735 C 2.6000234023449593 -1.101364909932503 2.5881931911467 -1.0500778671654851 2.6693292928041235 -1.2631926255433683 C 2.686424973726463 -1.3082910318165002 2.627000386840411 -1.3953422390730523 2.553078662532215 -1.3349944854171945 C 2.523742474069481 -1.3110605321259188 2.496799680935874 -1.2812114732355138 2.467600257920518 -1.25720913722055 C 2.4560093862551717 -1.4343887742996762 2.425647456937097 -1.4347990706418114 2.52278511593783 -1.5804884634619887 C 2.544975309775026 -1.613722467175017 2.5712342756717397 -1.6499995020922205 2.557694496381247 -1.691952303075642 C 2.552808554452814 -1.71148225739773 2.538752399390471 -1.7274285661939448 2.5199900551597922 -1.7347269210305072 C 2.501227710929113 -1.7420252758670705 2.480090821681289 -1.739768691659453 2.4632921463280884 -1.728673825696827 C 2.4291007844834094 -1.7121252065640027 2.396174503026984 -1.689216994128068 2.362119906629683 -1.6726683749952436 C 2.400140701000966 -1.8996990176439108 2.363932048807451 -1.8614730751015598 2.541898087209005 -2.0040852453557156 C 2.579508585238152 -2.034276217864567 2.572362590612614 -2.1395172296224887 2.4780628146449897 -2.1249517094766555 C 2.440623273425066 -2.119173369324905 2.4022605654353364 -2.1071038185937327 2.3648552155772578 -2.1013254784419826 C 2.4446236627608933 -2.259905014677603 2.4186382277589376 -2.2757014238498448 2.5761920231392184 -2.352016543487168 C 2.6156488547079775 -2.3711295147583433 2.6577042297769324 -2.386994306654274 2.659447989231011 -2.436640164052748 C 2.6606446868955747 -2.471378587686942 2.639993104341389 -2.497022109070451 2.5892531233638856 -2.499859992103559 C 2.5514032858018263 -2.5019798565379294 2.5113993924435514 -2.498082041287636 2.473549554881492 -2.5002019057220064 C 2.5932193213378683 -2.649857496516166 2.602758711292534 -2.6702013568137497 2.7921104731883655 -2.7019309406056125 C 2.839704848876159 -2.7099659106391116 2.884700681063756 -2.805359810185766 2.795256078478076 -2.8386963879843274 C 2.7597312535214544 -2.851894253656374 2.7203428046763847 -2.8600317977754073 2.684852171081608 -2.8732296634474537 C 2.831875027013727 -2.972829100501003 2.8167624450783793 -2.9992248318450954 2.9915486868283776 -2.9891383801009153 C 3.0314841974629627 -2.986847558857322 3.076069733308424 -2.982505255903048 3.1054059217711583 -3.015465728721318 C 3.119766889073386 -3.0295657165977796 3.1264030799489886 -3.0497516457510354 3.1232101507226564 -3.069622535085126 C 3.1200172214963238 -3.089493424419216 3.1073912632494625 -3.1065842390126233 3.089335981704159 -3.115475462117003 C 3.0578115460833653 -3.136434766927792 3.0213293629950932 -3.1533936824027524 2.9897707360124546 -3.1743529872135405 C 3.0932679883162972 -3.2138440101441446 3.1351182152141845 -3.2370941361985257 3.174404089973721 -3.24150482187649 C 3.3433047947327754 -3.184890700802878 3.509261368579946 -3.1198454920475402 3.6716490652808944 -3.0466140593618163 L 3.671649065280886 -3.0466140593618163 L 3.673392824734965 -3.0458276580393924 L 3.673392824734965 -3.0458276580393924 C 3.683399496634841 -3.0412688097934346 3.693360580052257 -3.036709961547478 3.703276074987214 -3.032151113301521 L 3.7035837972438164 -3.032151113301521 L 3.7135676749024626 -3.0274668967287997 L 3.7189015273502326 -3.024970927314138 L 3.7234831698374196 -3.0228168715179238 L 3.733364473410532 -3.0181326549452026 L 3.734424405627717 -3.0176539758793774 L 3.7380828813450977 -3.0159102164252984 L 3.747861610832676 -3.011225999852577 L 3.7498105184578225 -3.010302833082771 L 3.7529903151093778 -3.0087642217997606 L 3.7627006618732675 -3.0040800052270393 L 3.76505986584055 -3.002951690286165 L 3.7723768172753114 -2.9995325541016973 L 3.780172447775898 -2.9957031215750933 L 3.7819845899536655 -2.994814146167132 L 3.791592362632021 -2.990095738232566 L 3.7951824556257123 -2.988283596054798 L 3.8099189325807674 -2.9805563482779034 L 3.8104318030084374 -2.9803170087449904 L 3.8243476872792215 -2.973478736376055 L 3.8246896008976683 -2.9732735882049868 L 3.8292028606611663 -2.9709827669613937 L 3.838537102444764 -2.966230167664983 L 3.839323503767191 -2.9658540626846923 L 3.866197914177109 -2.9519381784139074 L 3.866197914177109 -2.9519381784139074 C 4.078519369654631 -2.8452098060995348 4.274708218226753 -2.709037893484645 4.448955485457818 -2.547454367791354 C 4.418917543510062 -2.2692905354288424 4.358458992767256 -1.995260692312391 4.268664434450823 -1.7302808197035229 C 4.119750791489331 -1.6874829954981334 3.9622408267491664 -1.6843243101830807 3.811731074758535 -1.7211175347291556 Z M 2.7976152824453586 -4.099981535072692 C 2.758671321304269 -3.9987067212887517 2.6597215201257685 -4.065790173228012 2.686254016917239 -4.1368740145031 C 2.5163571399110296 -4.184297433381669 2.2252860765272784 -4.359870076454095 2.330937384627336 -4.603175807340831 C 2.4074234610738827 -4.779329703564617 2.6347960173409977 -4.949534302827428 2.9063438131114374 -5.091360071759156 C 2.9705209992938997 -5.124867606366942 3.037125772167334 -5.1568365296917165 3.104653711810575 -5.187095884924258 C 2.442948286030504 -5.252059472429147 1.6491274380825933 -4.651043713923381 1.5171829727239774 -3.8761648804374227 C 1.5407066296731164 -3.857838310488675 1.7587449441566338 -3.5165059451932454 1.3611677886267075 -3.4007339939871626 C 1.3485169847441763 -3.3969729441842476 1.3349430140918388 -3.3990244258949285 1.3303955629664965 -3.3866471529071545 L 1.2129140436681798 -3.0721208152979536 C 1.2082944716944433 -3.059771952064138 1.2145320046211028 -3.0460126882553307 1.226864119300809 -3.041348589637743 L 1.9228976723729376 -2.780912986466823 C 1.9352561592827442 -2.776296919982369 1.9490195608196674 -2.7825516213474812 1.9536698980331486 -2.7948972534612975 C 1.9928987871896102 -2.899750763118312 2.032093484984227 -3.004535890051638 2.0712539914169996 -3.1092526342612747 C 2.0759040166278755 -3.121561524525359 2.0644157190480636 -3.1291178154930335 2.0572013416988364 -3.1400248599214864 C 1.847232188610663 -3.4530467776095217 2.1681523108848193 -3.678196895356732 2.4702329927825577 -3.559518678393852 C 2.4981673354096605 -3.6343293781100092 2.6045366621084565 -3.5973685159559112 2.577491294889316 -3.526900119194028 C 3.581452252734622 -3.2830473265177775 4.193306672945152 -2.9721110819022676 4.547289842123114 -2.6301290807317894 C 4.900452418616801 -2.288899289521894 5.122388548350612 -1.8374707390865983 5.188035963092395 -0.6738703127884857 C 5.393184134160469 -1.0314093835982927 5.506904603655872 -1.113263503854454 5.580928902049601 -1.5881473285151992 C 5.809087859639144 -3.0508195968687186 4.137198648158034 -3.7515373665135683 2.7976152824453586 -4.099981535072692 Z M 3.369192278402856 -4.477419978476101 C 3.369397426573924 -4.4630937978631815 3.3695341920213027 -4.455469124171818 3.3695341920213027 -4.455845229152109 C 3.3640293827643095 -4.455845229152109 3.3664569694552813 -4.191101514388761 3.3665595435408155 -4.184707729723805 C 3.3690897043173216 -4.072081383807433 3.533515963428383 -3.9962449432359355 3.74461343145743 -3.9607885010030035 C 3.741171501031732 -3.9471119562651316 3.737752364847265 -3.933526588492179 3.7343560229040267 -3.920032397684146 C 3.9579008410009915 -3.8390027924347603 4.176318400767964 -3.744472028813516 4.388402583630894 -3.6369621129720477 L 4.388402583630894 -3.636962112972049 C 4.548729586726971 -3.5555562981609756 4.703212709340625 -3.4631200501897372 4.8507381784946375 -3.360319804286753 C 5.045287027390861 -3.418889607126687 5.24243441978728 -3.4761601382165246 5.4527796778557445 -3.5268317364703385 C 5.425734310636605 -3.597300133232222 5.532069445973555 -3.63426099538632 5.560072171324347 -3.559450295670162 C 5.862152853222087 -3.6781285126330427 6.183004592772553 -3.452978394885832 5.973069631046224 -3.1399564771977966 C 5.965718488249619 -3.129015241407499 5.954332764755341 -3.1214589504398256 5.959016981328061 -3.109184251537585 C 5.998200282002063 -3.00433074188057 6.03739497979668 -2.899545614947244 6.0766010747119115 -2.794828870737607 C 6.081251411925393 -2.782483238623791 6.095014813462317 -2.776228537258678 6.107373300372123 -2.7808446037431334 L 6.803372662082406 -3.041211824190363 C 6.815704776762113 -3.0458759228079515 6.821942309688772 -3.059635186616759 6.8173227377150365 -3.0719840498505744 L 6.6998754097785636 -3.3864078133742423 C 6.695225384567687 -3.398785086362016 6.6816514139153504 -3.3966652219276456 6.669103184118352 -3.4004946544542496 C 6.271526028588426 -3.516266605660333 6.489598534433787 -3.8575989709557623 6.5131221913829265 -3.875754584095287 C 6.38117772602431 -4.650633417581245 5.587391069438246 -5.2515124106396325 4.925617260934484 -5.1866855885821215 C 4.993316157386948 -5.156597190158804 5.0599209302603825 -5.124628266834029 5.124098116442846 -5.09094977541702 C 5.395645912213286 -4.949124006485292 5.623018468480401 -4.77891940722248 5.699470353565102 -4.602765510998695 C 5.80519004438885 -4.359459780111959 5.514084789643254 -4.183887137039533 5.3441537212752 -4.136463718160964 C 5.370720409428515 -4.065448259609566 5.271736416888169 -3.998296424946616 5.232826647108924 -4.0995712387305545 C 4.9323213641728625 -4.024385497863985 4.636735240800986 -3.9307516335493196 4.347749054397575 -3.819202071604191 C 4.336534287712515 -3.865223644647126 4.32444194274011 -3.9119518391681867 4.3114720194803615 -3.9593866551673713 C 4.512175313508627 -3.993748973821274 4.6654209972964775 -4.068799013070344 4.667062182665022 -4.187750760927982 C 4.668532411224344 -4.287350197981532 4.668840133480947 -4.383256967955855 4.670105213869199 -4.477078064857655 Z" fill="url(#iconColor_0)" transform="matrix(1,0,0,1,0,0)" fill-rule="evenodd"></path></g></g></g><defs><clipPath id="SvgjsClipPath1018"><path d=" M 1.2113754323851693 -5.684067329336665 h 5.607588490698411 v 5.434067329336665 h -5.607588490698411 Z"></path></clipPath><clipPath id="SvgjsClipPath1008"><path d=" M 1.2113754323851693 -5.684067329336665 L 6.8189639230835795 -5.684067329336665 L 6.8189639230835795 -0.25 L 1.2113754323851693 -0.25 Z"></path></clipPath><linearGradient id="iconColor_0" x1="0" x2="1" y1="0" y2="1"><stop stop-color="#F97316" offset="0"></stop><stop stop-color="#000000" offset="1"></stop></linearGradient></defs></svg>