<svg xmlns="http://www.w3.org/2000/svg" version="1.1" xmlns:xlink="http://www.w3.org/1999/xlink" xmlns:svgjs="http://svgjs.dev/svgjs" viewBox="1.7772 0.4780 6.0627 6.0627"><g transform="matrix(1,0,0,1,0.7933601918918054,6.477427521228471)"><g clip-path="url(&quot;#SvgjsClipPath1018&quot;)"><g clip-path="url(&quot;#SvgjsClipPath1008&quot;)"><path d=" M 4.736162924953119 -5.656338134880631 C 4.7009458222531 -5.656338134880631 4.560521899157004 -5.677536779224331 4.525304796456984 -5.677502587862487 C 4.501826727990305 -5.499844271717535 4.478314468161781 -5.322185955572584 4.454768016971412 -5.144527639427632 C 4.437125274259557 -5.324271628645109 4.431346934107807 -5.483022121689953 4.413738382757797 -5.662629345460052 L 4.275263367286847 -5.662219049117915 L 4.237584486534011 -5.366087664181151 L 4.215531058144194 -5.665638185302384 L 4.156892872580569 -5.664031191295684 L 4.0926814950362616 -5.241528532980986 L 4.039924223709923 -5.670390784598793 L 3.798669974533868 -5.674356982572776 L 3.769265403347444 -5.438812690824784 L 3.7312788003380057 -5.66546722849316 L 3.5952997542817178 -5.670185636427726 L 3.556492558588007 -5.148630602848994 L 3.519565887795754 -5.671006229111998 C 3.440652224658235 -5.6687154078684046 3.3893651818912165 -5.686118811047346 3.3101437964970954 -5.683862181165598 C 3.351412770243623 -5.361471830332119 3.364644827277514 -4.757686571516935 3.36826911163305 -4.547683227066917 L 4.670754849744249 -4.547683227066917 C 4.672930250122317 -4.918131722887697 4.694763644163578 -5.288203757277706 4.7361629249530965 -5.656338134880422 M 3.811731074758535 -1.7211175347291556 C 3.696618673924466 -2.0212412245708213 3.6265426990433998 -2.336744417627094 3.603779212019197 -2.657379596121998 C 3.2264248531222774 -2.457109802335842 3.043285125886927 -2.0180119147600446 3.1665034884462613 -1.6089623607817378 C 3.289721851005596 -1.1999128068034315 3.6849226291013224 -0.9350289462949091 4.110109274078554 -0.9765092960362098 C 4.535295919055786 -1.0179896457775088 4.871849117176481 -1.3542619452612747 4.913684475650692 -1.779413806674334 C 4.99389741053831 -1.5224999137734159 5.051099558904457 -1.1954937290909076 5.083649735380591 -0.7602718841699883 C 5.05872423259582 -0.7596222482949395 5.012805233638416 -0.7602718841699883 4.982101390701895 -0.7619814522622228 C 4.94216588006731 -0.7642722735058163 4.897580344221849 -0.7686145764600898 4.868244155759115 -0.7356541036418198 C 4.853867040096651 -0.7215745243510794 4.8472188575416 -0.7013922183939387 4.850413478471182 -0.681524395038263 C 4.853608099400764 -0.6616565716825873 4.866247972203409 -0.6445756636105351 4.884314095826113 -0.6357127529698232 C 4.915838531446907 -0.6147192567971906 4.95232071453518 -0.5977603413222292 4.983879341517818 -0.5767668451495966 C 4.768747292791098 -0.49470757672236765 4.820034335558117 -0.4828089828004192 4.606987959903923 -0.5641844239907554 C 4.561889553630792 -0.5812801049130947 4.474769963650549 -0.5219580921125759 4.535015143220873 -0.447933793718847 C 4.558949096512149 -0.418597605256112 4.588798155402554 -0.3916206207606603 4.612732108693828 -0.36225024093608216 C 4.435552471614702 -0.3508303260799588 4.434937027101498 -0.32046839676188377 4.289521165176078 -0.41774282120999473 C 4.249824994074406 -0.44420693527777644 4.220010126545846 -0.46742286997031357 4.171013905022422 -0.45001946679137195 C 4.131010011664147 -0.435898434349518 4.112717633077244 -0.40345083195891895 4.138224389013374 -0.3523689373629688 C 4.155149113126491 -0.31848529777489176 4.178399239180872 -0.2856273990421556 4.195323963293989 -0.2517779508159226 C 3.967848832941339 -0.287507923943612 4.006450880463982 -0.2517779508159226 3.862026568032058 -0.4281711865726212 C 3.8314594905429145 -0.4655423450688554 3.726286861508683 -0.45730222686428856 3.741843931148012 -0.3632075990677315 C 3.7479299935563644 -0.3258022492096533 3.760444031991517 -0.28757630666730183 3.766632668485404 -0.25017095680922274 C 3.6072325395655103 -0.3283324099861584 3.5917438526498713 -0.3022102095368231 3.513787547644003 -0.45901179495652134 C 3.4959738481229254 -0.4948101508078997 3.477647278174177 -0.535668828212291 3.4344635881643484 -0.544763730462976 C 3.415097098604075 -0.5502639149556448 3.394265801832028 -0.5460220532844264 3.378592240757305 -0.5333866890008574 C 3.3629186796825823 -0.5207513247172875 3.3543529865554973 -0.5012945722417212 3.3556183077505186 -0.48120198879371845 C 3.353019764250323 -0.4435914907645717 3.3564730917966354 -0.40334825787338424 3.353840356934595 -0.365532611673169 C 3.1760452753422648 -0.5115981094736366 3.1909869004683897 -0.4612684248382699 3.155906563215749 -0.686521116671015 C 3.148487037695454 -0.7343890232535655 3.053674391300159 -0.7803764049346578 3.019312072646257 -0.6913762900529585 C 3.0056355279083853 -0.6559882305437164 2.9970534960853707 -0.6167023557841809 2.983445334071189 -0.5813484876367827 C 2.885658039195407 -0.7295338498716211 2.859022968318402 -0.7146947988310304 2.871263475858797 -0.8895152319428741 C 2.874272315701129 -0.9323570083342565 2.8804951435568604 -0.9696597841068018 2.8470901830346094 -1.002004812411867 C 2.814403241111096 -1.0336318221181955 2.774672878647579 -1.0361961742565455 2.7410969613161047 -0.9859006809830237 C 2.720137656505316 -0.9543762453622291 2.703247123754045 -0.9178598709121122 2.682287818943257 -0.8863012439294735 C 2.6000234023449593 -1.101364909932503 2.5881931911467 -1.0500778671654851 2.6693292928041235 -1.2631926255433683 C 2.686424973726463 -1.3082910318165002 2.627000386840411 -1.3953422390730523 2.553078662532215 -1.3349944854171945 C 2.523742474069481 -1.3110605321259188 2.496799680935874 -1.2812114732355138 2.467600257920518 -1.25720913722055 C 2.4560093862551717 -1.4343887742996762 2.425647456937097 -1.4347990706418114 2.52278511593783 -1.5804884634619887 C 2.544975309775026 -1.613722467175017 2.5712342756717397 -1.6499995020922205 2.557694496381247 -1.691952303075642 C 2.552808554452814 -1.71148225739773 2.538752399390471 -1.7274285661939448 2.5199900551597922 -1.7347269210305072 C 2.501227710929113 -1.7420252758670705 2.480090821681289 -1.739768691659453 2.4632921463280884 -1.728673825696827 C 2.4291007844834094 -1.7121252065640027 2.396174503026984 -1.689216994128068 2.362119906629683 -1.6726683749952436 C 2.400140701000966 -1.8996990176439108 2.363932048807451 -1.8614730751015598 2.541898087209005 -2.0040852453557156 C 2.579508585238152 -2.034276217864567 2.572362590612614 -2.1395172296224887 2.4780628146449897 -2.1249517094766555 C 2.440623273425066 -2.119173369324905 2.4022605654353364 -2.1071038185937327 2.3648552155772578 -2.1013254784419826 C 2.4446236627608933 -2.259905014677603 2.4186382277589376 -2.2757014238498448 2.5761920231392184 -2.352016543487168 C 2.6156488547079775 -2.3711295147583433 2.6577042297769324 -2.386994306654274 2.659447989231011 -2.436640164052748 C 2.6606446868955747 -2.471378587686942 2.639993104341389 -2.497022109070451 2.5892531233638856 -2.499859992103559 C 2.5514032858018263 -2.5019798565379294 2.5113993924435514 -2.498082041287636 2.473549554881492 -2.5002019057220064 C 2.5932193213378683 -2.649857496516166 2.602758711292534 -2.6702013568137497 2.7921104731883655 -2.7019309406056125 C 2.839704848876159 -2.7099659106391116 2.884700681063756 -2.805359810185766 2.795256078478076 -2.8386963879843274 C 2.7597312535214544 -2.851894253656374 2.7203428046763847 -2.8600317977754073 2.684852171081608 -2.8732296634474537 C 2.831875027013727 -2.972829100501003 2.8167624450783793 -2.9992248318450954 2.9915486868283776 -2.9891383801009153 C 3.0314841974629627 -2.986847558857322 3.076069733308424 -2.982505255903048 3.1054059217711583 -3.015465728721318 C 3.119766889073386 -3.0295657165977796 3.1264030799489886 -3.0497516457510354 3.1232101507226564 -3.069622535085126 C 3.1200172214963238 -3.089493424419216 3.1073912632494625 -3.1065842390126233 3.089335981704159 -3.115475462117003 C 3.0578115460833653 -3.136434766927792 3.0213293629950932 -3.1533936824027524 2.9897707360124546 -3.1743529872135405 C 3.0932679883162972 -3.2138440101441446 3.1351182152141845 -3.2370941361985257 3.174404089973721 -3.24150482187649 C 3.3433047947327754 -3.184890700802878 3.509261368579946 -3.1198454920475402 3.6716490652808944 -3.0466140593618163 L 3.671649065280886 -3.0466140593618163 L 3.673392824734965 -3.0458276580393924 L 3.673392824734965 -3.0458276580393924 C 3.683399496634841 -3.0412688097934346 3.693360580052257 -3.036709961547478 3.703276074987214 -3.032151113301521 L 3.7035837972438164 -3.032151113301521 L 3.7135676749024626 -3.0274668967287997 L 3.7189015273502326 -3.024970927314138 L 3.7234831698374196 -3.0228168715179238 L 3.733364473410532 -3.0181326549452026 L 3.734424405627717 -3.0176539758793774 L 3.7380828813450977 -3.0159102164252984 L 3.747861610832676 -3.011225999852577 L 3.7498105184578225 -3.010302833082771 L 3.7529903151093778 -3.0087642217997606 L 3.7627006618732675 -3.0040800052270393 L 3.76505986584055 -3.002951690286165 L 3.7723768172753114 -2.9995325541016973 L 3.780172447775898 -2.9957031215750933 L 3.7819845899536655 -2.994814146167132 L 3.791592362632021 -2.990095738232566 L 3.7951824556257123 -2.988283596054798 L 3.8099189325807674 -2.9805563482779034 L 3.8104318030084374 -2.9803170087449904 L 3.8243476872792215 -2.973478736376055 L 3.8246896008976683 -2.9732735882049868 L 3.8292028606611663 -2.9709827669613937 L 3.838537102444764 -2.966230167664983 L 3.839323503767191 -2.9658540626846923 L 3.866197914177109 -2.9519381784139074 L 3.866197914177109 -2.9519381784139074 C 4.078519369654631 -2.8452098060995348 4.274708218226753 -2.709037893484645 4.448955485457818 -2.547454367791354 C 4.418917543510062 -2.2692905354288424 4.358458992767256 -1.995260692312391 4.268664434450823 -1.7302808197035229 C 4.119750791489331 -1.6874829954981334 3.9622408267491664 -1.6843243101830807 3.811731074758535 -1.7211175347291556 Z M 2.7976152824453586 -4.099981535072692 C 2.758671321304269 -3.9987067212887517 2.6597215201257685 -4.065790173228012 2.686254016917239 -4.1368740145031 C 2.5163571399110296 -4.184297433381669 2.2252860765272784 -4.359870076454095 2.330937384627336 -4.603175807340831 C 2.4074234610738827 -4.779329703564617 2.6347960173409977 -4.949534302827428 2.9063438131114374 -5.091360071759156 C 2.9705209992938997 -5.124867606366942 3.037125772167334 -5.1568365296917165 3.104653711810575 -5.187095884924258 C 2.442948286030504 -5.252059472429147 1.6491274380825933 -4.651043713923381 1.5171829727239774 -3.8761648804374227 C 1.5407066296731164 -3.857838310488675 1.7587449441566338 -3.5165059451932454 1.3611677886267075 -3.4007339939871626 C 1.3485169847441763 -3.3969729441842476 1.3349430140918388 -3.3990244258949285 1.3303955629664965 -3.3866471529071545 L 1.2129140436681798 -3.0721208152979536 C 1.2082944716944433 -3.059771952064138 1.2145320046211028 -3.0460126882553307 1.226864119300809 -3.041348589637743 L 1.9228976723729376 -2.780912986466823 C 1.9352561592827442 -2.776296919982369 1.9490195608196674 -2.7825516213474812 1.9536698980331486 -2.7948972534612975 C 1.9928987871896102 -2.899750763118312 2.032093484984227 -3.004535890051638 2.0712539914169996 -3.1092526342612747 C 2.0759040166278755 -3.121561524525359 2.0644157190480636 -3.1291178154930335 2.0572013416988364 -3.1400248599214864 C 1.847232188610663 -3.4530467776095217 2.1681523108848193 -3.678196895356732 2.4702329927825577 -3.559518678393852 C 2.4981673354096605 -3.6343293781100092 2.6045366621084565 -3.5973685159559112 2.577491294889316 -3.526900119194028 C 3.581452252734622 -3.2830473265177775 4.193306672945152 -2.9721110819022676 4.547289842123114 -2.6301290807317894 C 4.900452418616801 -2.288899289521894 5.122388548350612 -1.8374707390865983 5.188035963092395 -0.6738703127884857 C 5.393184134160469 -1.0314093835982927 5.506904603655872 -1.113263503854454 5.580928902049601 -1.5881473285151992 C 5.809087859639144 -3.0508195968687186 4.137198648158034 -3.7515373665135683 2.7976152824453586 -4.099981535072692 Z M 3.369192278402856 -4.477419978476101 C 3.369397426573924 -4.4630937978631815 3.3695341920213027 -4.455469124171818 3.3695341920213027 -4.455845229152109 C 3.3640293827643095 -4.455845229152109 3.3664569694552813 -4.191101514388761 3.3665595435408155 -4.184707729723805 C 3.3690897043173216 -4.072081383807433 3.533515963428383 -3.9962449432359355 3.74461343145743 -3.9607885010030035 C 3.741171501031732 -3.9471119562651316 3.737752364847265 -3.933526588492179 3.7343560229040267 -3.920032397684146 C 3.9579008410009915 -3.8390027924347603 4.176318400767964 -3.744472028813516 4.388402583630894 -3.6369621129720477 L 4.388402583630894 -3.636962112972049 C 4.548729586726971 -3.5555562981609756 4.703212709340625 -3.4631200501897372 4.8507381784946375 -3.360319804286753 C 5.045287027390861 -3.418889607126687 5.24243441978728 -3.4761601382165246 5.4527796778557445 -3.5268317364703385 C 5.425734310636605 -3.597300133232222 5.532069445973555 -3.63426099538632 5.560072171324347 -3.559450295670162 C 5.862152853222087 -3.6781285126330427 6.183004592772553 -3.452978394885832 5.973069631046224 -3.1399564771977966 C 5.965718488249619 -3.129015241407499 5.954332764755341 -3.1214589504398256 5.959016981328061 -3.109184251537585 C 5.998200282002063 -3.00433074188057 6.03739497979668 -2.899545614947244 6.0766010747119115 -2.794828870737607 C 6.081251411925393 -2.782483238623791 6.095014813462317 -2.776228537258678 6.107373300372123 -2.7808446037431334 L 6.803372662082406 -3.041211824190363 C 6.815704776762113 -3.0458759228079515 6.821942309688772 -3.059635186616759 6.8173227377150365 -3.0719840498505744 L 6.6998754097785636 -3.3864078133742423 C 6.695225384567687 -3.398785086362016 6.6816514139153504 -3.3966652219276456 6.669103184118352 -3.4004946544542496 C 6.271526028588426 -3.516266605660333 6.489598534433787 -3.8575989709557623 6.5131221913829265 -3.875754584095287 C 6.38117772602431 -4.650633417581245 5.587391069438246 -5.2515124106396325 4.925617260934484 -5.1866855885821215 C 4.993316157386948 -5.156597190158804 5.0599209302603825 -5.124628266834029 5.124098116442846 -5.09094977541702 C 5.395645912213286 -4.949124006485292 5.623018468480401 -4.77891940722248 5.699470353565102 -4.602765510998695 C 5.80519004438885 -4.359459780111959 5.514084789643254 -4.183887137039533 5.3441537212752 -4.136463718160964 C 5.370720409428515 -4.065448259609566 5.271736416888169 -3.998296424946616 5.232826647108924 -4.0995712387305545 C 4.9323213641728625 -4.024385497863985 4.636735240800986 -3.9307516335493196 4.347749054397575 -3.819202071604191 C 4.336534287712515 -3.865223644647126 4.32444194274011 -3.9119518391681867 4.3114720194803615 -3.9593866551673713 C 4.512175313508627 -3.993748973821274 4.6654209972964775 -4.068799013070344 4.667062182665022 -4.187750760927982 C 4.668532411224344 -4.287350197981532 4.668840133480947 -4.383256967955855 4.670105213869199 -4.477078064857655 Z" fill="url(#iconColor_0)" transform="matrix(1,0,0,1,0,0)" fill-rule="evenodd"></path></g></g></g><defs><clipPath id="SvgjsClipPath1018"><path d=" M 1.2113754323851693 -5.684067329336665 h 5.607588490698411 v 5.434067329336665 h -5.607588490698411 Z"></path></clipPath><clipPath id="SvgjsClipPath1008"><path d=" M 1.2113754323851693 -5.684067329336665 L 6.8189639230835795 -5.684067329336665 L 6.8189639230835795 -0.25 L 1.2113754323851693 -0.25 Z"></path></clipPath><linearGradient id="iconColor_0" x1="0" x2="1" y1="0" y2="1"><stop stop-color="#F97316" offset="0"></stop><stop stop-color="#000000" offset="1"></stop></linearGradient></defs></svg>